<mxfile host="app.diagrams.net" modified="2023-05-14T06:31:39.072Z" agent="Mozilla/5.0 (Windows NT 10.0; Win64; x64; rv:109.0) Gecko/20100101 Firefox/113.0" etag="8YvcNvjvXkE5Fx55_tqv" version="21.3.0" type="device">
  <diagram name="Strona-1" id="Uu0WhD-oibmJ6Q5krLVX">
    <mxGraphModel dx="1434" dy="782" grid="1" gridSize="10" guides="1" tooltips="1" connect="1" arrows="1" fold="1" page="1" pageScale="1" pageWidth="827" pageHeight="1169" math="0" shadow="0">
      <root>
        <mxCell id="0" />
        <mxCell id="1" parent="0" />
        <mxCell id="zo0r8RxoVhE8TmbRMtNV-1" value="" style="whiteSpace=wrap;html=1;aspect=fixed;" parent="1" vertex="1">
          <mxGeometry x="230" y="190" width="330" height="330" as="geometry" />
        </mxCell>
        <mxCell id="zo0r8RxoVhE8TmbRMtNV-2" value="Pacjent" style="shape=umlActor;verticalLabelPosition=bottom;verticalAlign=top;html=1;outlineConnect=0;" parent="1" vertex="1">
          <mxGeometry x="610" y="310" width="30" height="60" as="geometry" />
        </mxCell>
        <mxCell id="zo0r8RxoVhE8TmbRMtNV-3" value="Zabieg" style="ellipse;whiteSpace=wrap;html=1;" parent="1" vertex="1">
          <mxGeometry x="342" y="225" width="106" height="60" as="geometry" />
        </mxCell>
        <mxCell id="zo0r8RxoVhE8TmbRMtNV-4" value="" style="endArrow=none;html=1;rounded=0;entryX=1;entryY=0.5;entryDx=0;entryDy=0;exitX=0.5;exitY=0.5;exitDx=0;exitDy=0;exitPerimeter=0;" parent="1" source="zo0r8RxoVhE8TmbRMtNV-2" target="zo0r8RxoVhE8TmbRMtNV-3" edge="1">
          <mxGeometry relative="1" as="geometry">
            <mxPoint x="330" y="280" as="sourcePoint" />
            <mxPoint x="490" y="280" as="targetPoint" />
          </mxGeometry>
        </mxCell>
        <mxCell id="zo0r8RxoVhE8TmbRMtNV-6" value="Lekarz" style="shape=umlActor;verticalLabelPosition=bottom;verticalAlign=top;html=1;outlineConnect=0;" parent="1" vertex="1">
          <mxGeometry x="110" y="330" width="30" height="60" as="geometry" />
        </mxCell>
        <mxCell id="zo0r8RxoVhE8TmbRMtNV-7" value="" style="endArrow=none;html=1;rounded=0;entryX=0.5;entryY=0.5;entryDx=0;entryDy=0;exitX=0;exitY=0.5;exitDx=0;exitDy=0;entryPerimeter=0;" parent="1" source="zo0r8RxoVhE8TmbRMtNV-3" target="zo0r8RxoVhE8TmbRMtNV-6" edge="1">
          <mxGeometry relative="1" as="geometry">
            <mxPoint x="270" y="255" as="sourcePoint" />
            <mxPoint x="180" y="250" as="targetPoint" />
          </mxGeometry>
        </mxCell>
        <mxCell id="zo0r8RxoVhE8TmbRMtNV-12" value="OpÅ‚ata" style="ellipse;whiteSpace=wrap;html=1;" parent="1" vertex="1">
          <mxGeometry x="343" y="410" width="105" height="70" as="geometry" />
        </mxCell>
        <mxCell id="zo0r8RxoVhE8TmbRMtNV-13" value="" style="endArrow=none;html=1;rounded=0;entryX=0.5;entryY=0.5;entryDx=0;entryDy=0;exitX=0;exitY=0.5;exitDx=0;exitDy=0;entryPerimeter=0;" parent="1" source="zo0r8RxoVhE8TmbRMtNV-18" target="zo0r8RxoVhE8TmbRMtNV-6" edge="1">
          <mxGeometry relative="1" as="geometry">
            <mxPoint x="280" y="305" as="sourcePoint" />
            <mxPoint x="155" y="330" as="targetPoint" />
          </mxGeometry>
        </mxCell>
        <mxCell id="zo0r8RxoVhE8TmbRMtNV-16" value="5.2.2.2 Wizyta w klinice" style="rounded=0;whiteSpace=wrap;html=1;" parent="1" vertex="1">
          <mxGeometry x="270" y="140" width="250" height="50" as="geometry" />
        </mxCell>
        <mxCell id="zo0r8RxoVhE8TmbRMtNV-18" value="Zwolnienie lekarskie" style="ellipse;whiteSpace=wrap;html=1;" parent="1" vertex="1">
          <mxGeometry x="342" y="325" width="106" height="60" as="geometry" />
        </mxCell>
        <mxCell id="zo0r8RxoVhE8TmbRMtNV-19" value="" style="endArrow=none;html=1;rounded=0;entryX=1;entryY=0.5;entryDx=0;entryDy=0;exitX=0.5;exitY=0.5;exitDx=0;exitDy=0;exitPerimeter=0;" parent="1" source="zo0r8RxoVhE8TmbRMtNV-2" target="zo0r8RxoVhE8TmbRMtNV-18" edge="1">
          <mxGeometry relative="1" as="geometry">
            <mxPoint x="635" y="330" as="sourcePoint" />
            <mxPoint x="544" y="364" as="targetPoint" />
          </mxGeometry>
        </mxCell>
        <mxCell id="y1ApVIU30L6YpnV38fl7-2" value="Asystentka" style="shape=umlActor;verticalLabelPosition=bottom;verticalAlign=top;html=1;outlineConnect=0;" vertex="1" parent="1">
          <mxGeometry x="110" y="210" width="30" height="60" as="geometry" />
        </mxCell>
        <mxCell id="y1ApVIU30L6YpnV38fl7-3" value="" style="endArrow=none;html=1;rounded=0;entryX=0.5;entryY=0.5;entryDx=0;entryDy=0;exitX=0;exitY=0.5;exitDx=0;exitDy=0;entryPerimeter=0;" edge="1" parent="1" source="zo0r8RxoVhE8TmbRMtNV-3" target="y1ApVIU30L6YpnV38fl7-2">
          <mxGeometry relative="1" as="geometry">
            <mxPoint x="352" y="265" as="sourcePoint" />
            <mxPoint x="135" y="280" as="targetPoint" />
          </mxGeometry>
        </mxCell>
        <mxCell id="y1ApVIU30L6YpnV38fl7-4" value="Recepjonistka" style="shape=umlActor;verticalLabelPosition=bottom;verticalAlign=top;html=1;outlineConnect=0;" vertex="1" parent="1">
          <mxGeometry x="110" y="440" width="30" height="60" as="geometry" />
        </mxCell>
        <mxCell id="y1ApVIU30L6YpnV38fl7-5" value="" style="endArrow=none;html=1;rounded=0;entryX=0.5;entryY=0.5;entryDx=0;entryDy=0;exitX=0;exitY=0.5;exitDx=0;exitDy=0;entryPerimeter=0;" edge="1" parent="1" source="zo0r8RxoVhE8TmbRMtNV-12" target="y1ApVIU30L6YpnV38fl7-4">
          <mxGeometry relative="1" as="geometry">
            <mxPoint x="352" y="365" as="sourcePoint" />
            <mxPoint x="135" y="370" as="targetPoint" />
          </mxGeometry>
        </mxCell>
        <mxCell id="y1ApVIU30L6YpnV38fl7-6" value="" style="endArrow=none;html=1;rounded=0;entryX=1;entryY=0.5;entryDx=0;entryDy=0;exitX=0.5;exitY=0.5;exitDx=0;exitDy=0;exitPerimeter=0;" edge="1" parent="1" source="zo0r8RxoVhE8TmbRMtNV-2" target="zo0r8RxoVhE8TmbRMtNV-12">
          <mxGeometry relative="1" as="geometry">
            <mxPoint x="353" y="455" as="sourcePoint" />
            <mxPoint x="135" y="480" as="targetPoint" />
          </mxGeometry>
        </mxCell>
      </root>
    </mxGraphModel>
  </diagram>
</mxfile>
